<?xml version="1.0" standalone="no"?>
<!DOCTYPE svg PUBLIC "-//W3C//DTD SVG 20010904//EN"
 "http://www.w3.org/TR/2001/REC-SVG-20010904/DTD/svg10.dtd">
<svg version="1.0" xmlns="http://www.w3.org/2000/svg"
 width="230.000000pt" height="230.000000pt" viewBox="0 0 230.000000 230.000000"
 preserveAspectRatio="xMidYMid meet">
<metadata>
Created by potrace 1.14, written by Peter Selinger 2001-2017
</metadata>
<g transform="translate(0.000000,230.000000) scale(0.100000,-0.100000)"
fill="#000000" stroke="none">
<path d="M994 2288 c-3 -5 -14 -6 -24 -3 -10 3 -21 1 -25 -5 -3 -5 -24 -10
-46 -10 -21 0 -39 -4 -39 -9 0 -6 -9 -8 -20 -6 -11 2 -22 -1 -25 -6 -4 -5 -10
-7 -15 -4 -5 3 -11 1 -15 -4 -3 -6 -13 -7 -22 -4 -11 4 -14 3 -9 -5 4 -7 1
-12 -9 -12 -9 0 -37 -10 -63 -22 -26 -11 -52 -21 -59 -21 -7 0 -10 -4 -7 -8 3
-5 -7 -11 -21 -15 -14 -3 -25 -10 -25 -15 0 -5 -7 -9 -15 -9 -8 0 -15 -4 -15
-10 0 -5 -7 -6 -17 -3 -11 4 -14 3 -9 -5 4 -7 2 -12 -4 -12 -11 0 -16 -3 -63
-45 -16 -14 -33 -23 -38 -20 -5 4 -9 1 -9 -5 0 -13 -49 -60 -63 -60 -6 0 -8
-2 -5 -5 3 -3 -19 -31 -48 -62 -30 -31 -54 -62 -54 -69 0 -8 -4 -14 -9 -14 -9
0 -69 -95 -60 -95 2 0 -6 -11 -18 -25 -13 -13 -23 -28 -23 -33 0 -4 -12 -34
-26 -64 -14 -31 -31 -78 -38 -105 -7 -27 -14 -47 -17 -44 -2 2 -5 -12 -7 -32
-1 -20 -8 -40 -15 -44 -9 -6 -9 -8 1 -8 10 0 10 -5 2 -21 -7 -11 -9 -23 -6
-26 2 -3 1 -15 -4 -28 -6 -15 -4 -27 3 -35 9 -10 9 -11 -1 -6 -10 6 -13 -16
-10 -112 1 -66 5 -119 8 -117 3 2 6 -16 7 -38 2 -50 8 -79 36 -172 11 -38 21
-72 22 -75 4 -22 80 -170 87 -170 4 0 8 -8 8 -17 0 -10 14 -34 30 -53 16 -19
35 -41 40 -48 6 -6 8 -12 5 -12 -3 0 17 -23 45 -51 27 -28 50 -55 50 -60 0 -5
7 -9 15 -9 8 0 15 -5 15 -11 0 -5 5 -7 10 -4 6 4 9 3 8 -2 -2 -4 10 -20 25
-35 15 -15 27 -24 27 -20 0 4 4 3 8 -3 11 -15 99 -75 110 -75 6 0 12 -3 14 -7
5 -13 84 -53 102 -53 11 0 14 -5 10 -12 -5 -8 0 -9 15 -5 17 4 21 2 17 -9 -3
-8 -2 -12 3 -9 6 3 29 -1 53 -10 24 -8 51 -15 61 -15 9 0 17 -4 17 -8 0 -4 17
-9 37 -10 21 -2 41 -8 45 -15 6 -9 8 -8 8 3 0 9 3 11 8 5 4 -6 16 -10 27 -10
11 0 28 -3 38 -8 9 -4 17 -4 17 1 0 4 9 8 19 8 11 0 17 -4 14 -9 -3 -5 47 -7
111 -5 64 2 116 6 116 9 0 4 16 6 35 4 19 -1 32 1 30 5 -2 4 8 8 23 9 36 2 76
8 80 11 1 1 5 3 10 5 4 1 21 8 37 15 17 7 39 13 50 13 11 1 23 6 27 11 4 6 11
11 15 12 16 2 89 37 114 55 14 10 29 16 33 12 3 -3 6 -1 6 5 0 6 8 13 18 16 9
3 33 19 52 36 19 16 36 27 38 25 2 -2 23 15 45 38 23 23 45 41 49 39 4 -1 8 5
8 14 0 8 5 12 10 9 6 -3 10 -2 10 3 0 5 12 22 28 38 15 16 36 42 47 58 11 15
30 40 43 54 12 15 25 37 28 49 4 13 10 23 16 23 5 0 6 5 3 10 -3 6 -1 10 4 10
6 0 11 7 11 16 0 8 4 13 8 10 4 -2 9 5 9 16 1 12 8 25 15 29 7 5 9 9 5 9 -5 0
1 16 12 36 12 19 19 40 16 45 -4 5 -1 9 5 9 6 0 8 5 5 10 -3 6 -3 10 2 10 4 0
9 15 10 32 2 18 7 34 13 36 5 2 10 8 10 13 0 6 -6 7 -12 3 -9 -6 -9 -3 0 9 8
9 16 29 18 44 2 15 7 44 10 63 10 67 11 285 1 298 -6 8 -6 12 3 12 10 0 10 3
0 15 -7 8 -9 15 -5 15 4 0 2 7 -5 15 -10 12 -10 15 0 15 10 0 10 3 0 15 -7 8
-10 15 -7 15 3 0 1 15 -5 33 -5 17 -11 42 -13 53 -2 12 -8 31 -14 43 -7 11 -9
21 -6 21 3 0 -1 10 -9 22 -9 12 -16 30 -16 40 0 10 -4 18 -10 18 -5 0 -10 11
-10 25 0 14 -5 25 -11 25 -5 0 -8 4 -4 9 3 5 -1 16 -9 24 -8 8 -12 17 -9 21 4
3 -1 6 -10 6 -10 0 -17 5 -17 11 0 5 6 7 13 4 6 -4 2 2 -10 13 -12 11 -20 22
-17 24 2 3 -11 21 -30 41 -18 20 -32 38 -29 41 7 6 -167 177 -210 206 -20 14
-37 28 -37 33 0 4 -7 7 -15 7 -9 0 -18 7 -21 15 -4 8 -10 13 -14 10 -5 -3 -15
1 -22 9 -8 7 -25 17 -38 21 -14 4 -28 13 -32 19 -7 11 -11 12 -44 15 -8 0 -12
6 -9 11 3 6 -4 10 -17 10 -13 0 -29 5 -35 11 -6 6 -17 12 -24 13 -8 2 -21 6
-29 9 -8 3 -26 8 -40 10 -14 3 -36 8 -50 12 -14 3 -36 8 -50 11 -14 3 -41 9
-61 13 -48 11 -308 10 -315 -1z"/>
</g>
</svg>
