<svg width="30" height="18" viewBox="0 0 30 18" fill="none" xmlns="http://www.w3.org/2000/svg">
<path d="M4.26513 1.34989C2.56554 1.34989 1.18775 2.72769 1.18775 4.42728V14.0051C1.18775 15.7047 2.56555 17.0825 4.26514 17.0825H25.7349C27.4345 17.0825 28.8123 15.7047 28.8123 14.0051V4.42727C28.8123 2.72768 27.4345 1.34989 25.7349 1.34989H4.26513Z" fill="url(#paint0_radial_32_295)" stroke="white" stroke-width="1.67857"/>
<path d="M7.47657 11.491H9.96486V12.4324H6.3047V6.74493H7.47657V11.491ZM12.3867 12.4324H11.2149V6.74493H12.3867V12.4324ZM16.0781 11.0223L17.3672 6.74493H18.6719L16.6914 12.4324H15.4688L13.4961 6.74493H14.7969L16.0781 11.0223ZM23.1328 9.96759H20.8828V11.491H23.5234V12.4324H19.7109V6.74493H23.5156V7.69415H20.8828V9.04962H23.1328V9.96759Z" fill="white"/>
<defs>
<radialGradient id="paint0_radial_32_295" cx="0" cy="0" r="1" gradientUnits="userSpaceOnUse" gradientTransform="translate(3.78354 16.2704) rotate(-30.0668) scale(20.4554 28.1661)">
<stop stop-color="#FEC66A"/>
<stop offset="0.648597" stop-color="#D60A66"/>
</radialGradient>
</defs>
</svg>
