<?xml version="1.0" standalone="no"?>
<!DOCTYPE svg PUBLIC "-//W3C//DTD SVG 20010904//EN"
 "http://www.w3.org/TR/2001/REC-SVG-20010904/DTD/svg10.dtd">
<svg version="1.0" xmlns="http://www.w3.org/2000/svg"
 width="960.000000pt" height="960.000000pt" viewBox="0 0 960.000000 960.000000"
 preserveAspectRatio="xMidYMid meet">
<metadata>
Created by potrace 1.14, written by Peter Selinger 2001-2017
</metadata>
<g transform="translate(0.000000,960.000000) scale(0.100000,-0.100000)"
fill="#000000" stroke="none">
<path d="M3727 9593 c-2 -1 -23 -5 -47 -8 -25 -3 -54 -8 -65 -10 -11 -2 -28
-4 -37 -4 -9 -1 -27 -18 -39 -38 -13 -21 -28 -42 -34 -48 -6 -5 -29 -37 -51
-70 -21 -33 -43 -64 -47 -70 -8 -10 -98 -138 -117 -165 -6 -8 -33 -46 -60 -85
-27 -38 -54 -77 -60 -85 -28 -43 -152 -217 -164 -231 -7 -9 -52 -23 -107 -33
-126 -24 -260 -62 -309 -87 -40 -21 -120 -92 -120 -107 0 -13 107 -57 163 -68
42 -8 137 -11 137 -4 0 3 26 5 58 6 31 0 92 4 135 8 l78 7 77 -61 c42 -33 83
-65 91 -71 7 -7 34 -28 60 -47 25 -19 48 -39 49 -44 2 -4 8 -8 13 -8 6 0 36
-21 68 -47 31 -27 72 -59 90 -73 19 -14 42 -32 52 -40 11 -8 29 -23 42 -32 12
-10 70 -56 129 -102 l107 -83 54 8 c72 12 118 18 141 18 22 1 38 -21 -228 320
-104 135 -195 261 -202 280 -13 39 -6 65 24 79 16 8 138 36 207 47 17 3 83 16
148 30 l119 25 41 -33 c23 -17 44 -34 47 -38 3 -3 23 -18 45 -35 22 -16 49
-37 60 -47 32 -30 51 -33 125 -23 75 10 84 23 47 64 -9 10 -17 23 -17 29 0 6
-4 13 -8 15 -4 2 -34 45 -66 96 -49 78 -57 97 -50 120 9 32 6 23 29 97 11 33
19 62 20 65 0 3 3 10 6 15 4 6 9 24 13 40 4 17 9 38 13 49 5 17 1 18 -43 11
-27 -4 -62 -9 -78 -11 -16 -2 -32 -7 -35 -12 -28 -38 -99 -131 -114 -147 -10
-11 -26 -32 -35 -48 -19 -31 -26 -34 -107 -42 -78 -6 -178 -15 -237 -21 -27
-2 -72 -6 -100 -9 -59 -6 -104 8 -113 35 -7 22 2 75 17 104 6 11 10 21 9 21
-1 0 2 11 7 25 5 14 26 70 46 125 20 55 41 109 46 120 5 11 36 91 68 177 59
156 59 158 35 156 -13 -2 -25 -3 -26 -5z"/>
<path d="M4669 9026 c-2 -2 -39 -6 -82 -9 -43 -4 -82 -9 -86 -11 -5 -3 -12
-20 -16 -38 -9 -37 -12 -47 -15 -50 -2 -4 -10 -36 -17 -68 -3 -18 5 -42 28
-78 17 -28 34 -50 38 -48 3 2 39 7 79 11 41 3 83 8 95 11 12 2 52 6 89 8 37 3
72 7 78 11 5 3 10 0 10 -7 0 -8 3 -9 8 -3 7 11 12 11 205 18 65 3 120 7 124
10 3 4 13 2 23 -3 10 -5 20 -7 23 -4 10 11 420 2 546 -11 31 -4 74 -8 96 -10
71 -6 149 -15 171 -19 12 -2 44 -7 72 -11 29 -3 65 -10 81 -15 16 -4 32 -6 35
-3 6 6 20 -6 89 -73 71 -68 93 -98 128 -172 60 -125 65 -256 14 -407 -25 -74
-89 -190 -147 -265 -48 -62 -199 -217 -264 -270 -61 -51 -113 -90 -118 -90 -3
0 -14 -8 -24 -17 -10 -10 -27 -24 -38 -31 -139 -91 -192 -123 -315 -189 -79
-43 -180 -95 -224 -115 -226 -103 -290 -129 -299 -121 -3 4 -6 1 -6 -5 0 -7
-7 -12 -15 -12 -8 0 -23 -4 -33 -9 -9 -6 -57 -24 -107 -42 -49 -17 -97 -34
-105 -37 -8 -3 -20 -6 -27 -8 -7 -1 -41 -11 -75 -22 -119 -38 -264 -80 -310
-88 -10 -2 -64 -15 -120 -28 -121 -29 -219 -49 -303 -62 -67 -11 -79 -13 -105
-18 -28 -6 -251 -34 -320 -40 -149 -15 -243 -20 -392 -20 -93 -1 -168 -5 -168
-9 0 -5 -5 -5 -11 -1 -6 3 -54 8 -107 10 -168 6 -342 26 -487 54 -141 28 -199
44 -290 77 -38 14 -79 27 -90 31 -35 10 -219 106 -237 125 -10 9 -22 17 -26
17 -9 0 -127 113 -155 149 -30 37 -67 108 -60 115 4 3 1 6 -5 6 -6 0 -14 15
-18 33 -4 17 -9 35 -10 40 -1 4 -3 8 -4 10 -5 5 -10 54 -11 117 -1 74 8 139
23 158 6 6 8 12 4 12 -7 0 26 86 56 148 12 23 25 42 30 42 4 0 7 3 6 8 -3 7
52 89 87 131 11 13 25 29 30 36 6 6 39 42 75 80 56 59 61 73 10 25 -9 -8 -36
-31 -61 -52 -111 -91 -255 -230 -368 -357 -36 -40 -77 -85 -91 -100 -66 -68
-312 -390 -355 -463 -61 -105 -118 -238 -130 -305 -2 -16 -8 -48 -13 -74 -15
-79 -2 -241 25 -309 4 -8 7 -17 8 -20 32 -110 168 -283 285 -363 25 -17 54
-39 64 -49 11 -10 26 -18 33 -18 7 0 13 -4 13 -8 0 -16 300 -157 375 -176 6
-2 17 -6 25 -9 21 -8 83 -27 106 -32 10 -2 64 -16 119 -30 102 -26 140 -34
185 -40 14 -2 36 -6 50 -9 13 -3 42 -8 65 -11 22 -3 51 -8 65 -10 22 -4 85
-11 175 -21 146 -15 252 -19 520 -19 339 1 458 5 493 17 13 4 22 4 22 -3 0 -6
4 -8 8 -5 8 5 59 11 172 21 35 3 78 8 95 10 146 20 220 29 229 27 4 -2 14 2
20 8 7 5 15 8 18 5 2 -3 69 7 149 20 174 31 178 32 209 39 14 3 36 8 50 10 14
2 36 7 50 10 14 3 36 8 50 10 14 3 36 8 50 11 14 3 36 8 48 11 13 3 49 12 80
20 32 8 64 17 72 19 8 2 53 13 100 25 47 12 90 23 95 24 6 1 24 6 40 12 26 10
128 42 160 50 74 20 124 35 140 43 11 5 49 19 85 31 36 12 72 24 80 27 8 3 20
7 25 8 50 12 591 239 605 255 3 3 25 14 50 25 25 11 81 39 124 62 44 24 83 43
88 43 4 0 8 5 8 12 0 6 3 9 6 5 3 -3 42 16 86 44 44 27 82 49 84 49 8 0 179
114 186 125 4 5 8 7 8 3 0 -4 8 -1 18 6 9 8 55 43 102 77 47 34 89 68 93 76 4
7 13 13 19 13 26 0 311 278 373 365 11 15 30 40 43 55 38 47 129 208 156 276
45 113 66 221 62 326 -2 51 -6 100 -8 108 -2 8 -8 31 -12 50 -34 145 -171 325
-336 442 -65 46 -259 157 -335 192 -22 10 -76 36 -120 57 -44 21 -82 38 -85
37 -3 -1 -16 5 -30 12 -14 8 -28 14 -31 15 -3 0 -28 10 -55 22 -65 28 -159 64
-175 67 -8 1 -18 4 -24 8 -16 9 -307 101 -330 104 -5 0 -17 3 -25 7 -16 6
-219 54 -260 61 -14 3 -34 7 -45 9 -11 2 -51 10 -90 16 -38 7 -81 14 -95 16
-14 3 -50 7 -80 10 -30 3 -73 8 -95 11 -43 6 -621 15 -626 10z"/>
<path d="M5833 5964 c-24 -13 -43 -21 -43 -18 0 2 -10 -1 -22 -8 -13 -7 -25
-13 -28 -13 -7 -2 -47 -19 -110 -47 -30 -14 -76 -34 -102 -44 -27 -10 -48 -23
-47 -29 0 -5 33 -33 72 -62 58 -42 248 -183 437 -323 14 -10 93 -68 175 -129
83 -62 161 -120 175 -131 14 -10 90 -67 170 -126 155 -115 170 -128 201 -188
19 -35 21 -59 8 -106 -10 -35 -101 -88 -492 -285 l-416 -210 -68 24 c-37 13
-79 29 -93 34 -14 6 -27 11 -30 12 -20 5 -90 30 -115 40 -16 8 -64 25 -105 40
-41 14 -82 28 -90 31 -8 3 -16 5 -17 5 -2 0 -18 6 -38 14 -37 16 -30 18 -170
-45 -11 -5 -51 -23 -89 -40 -38 -16 -67 -32 -65 -34 2 -2 36 -29 74 -61 39
-32 82 -69 97 -84 36 -34 56 -51 62 -51 3 0 16 -10 28 -22 13 -13 46 -42 73
-65 47 -39 79 -66 150 -127 l30 -26 2 -336 c1 -185 3 -338 6 -340 2 -3 71 24
152 59 l148 64 27 76 c16 42 26 78 22 81 -3 3 0 6 6 6 7 0 11 3 11 8 -1 4 0
10 1 15 1 4 4 12 5 17 1 6 3 11 5 13 1 1 3 9 5 17 11 41 116 335 122 341 5 4
58 26 118 49 61 23 119 45 130 50 31 12 166 63 315 118 374 138 394 143 454
101 66 -45 74 -127 41 -444 -3 -22 -7 -71 -10 -110 -3 -38 -8 -97 -11 -130 -3
-33 -7 -82 -9 -110 -2 -27 -4 -50 -5 -50 -1 0 -3 -25 -6 -55 -2 -30 -6 -80 -8
-110 -6 -65 -12 -136 -21 -245 -3 -44 -8 -96 -10 -115 -3 -19 -7 -70 -10 -112
-4 -43 -8 -87 -10 -98 -5 -23 -4 -23 32 -9 15 6 37 15 48 19 11 4 46 19 77 34
81 37 112 49 121 48 4 -1 7 3 7 8 0 6 3 9 8 8 4 -1 24 6 46 15 21 9 43 17 48
17 11 0 37 60 78 185 18 55 37 106 43 113 5 6 6 12 2 12 -4 0 -2 7 5 15 7 8 9
15 6 15 -4 0 -2 9 4 21 6 11 13 28 15 37 2 9 9 31 16 47 6 17 13 35 15 40 3
11 39 114 109 310 25 72 54 155 65 185 10 30 46 134 80 230 34 96 79 225 100
285 21 61 52 147 68 193 17 45 27 82 24 82 -4 0 -2 4 3 8 6 4 19 34 29 67 l18
60 146 73 c437 216 564 298 668 429 43 55 123 187 124 204 0 6 -84 30 -160 46
-56 12 -246 5 -310 -11 -36 -9 -72 -18 -80 -20 -8 -3 -26 -9 -40 -14 -22 -8
-34 -12 -42 -12 -2 0 -68 -23 -148 -51 -80 -27 -149 -52 -155 -53 -11 -3 -19
-7 -105 -41 -125 -51 -112 -51 -261 10 -74 31 -143 60 -154 64 -11 5 -36 16
-55 24 -19 8 -91 38 -160 66 -69 28 -136 57 -150 63 -14 6 -27 12 -30 13 -16
5 -147 60 -207 86 -24 11 -45 19 -48 19 -2 0 -28 11 -57 24 -29 13 -93 40
-143 59 -49 20 -105 43 -123 52 -18 10 -38 18 -45 19 -7 1 -30 10 -52 20 -22
9 -143 60 -270 113 -126 52 -234 98 -240 102 -5 4 -29 -3 -52 -15z"/>
<path d="M256 5485 c-3 -8 -1 -15 4 -15 6 0 10 7 10 15 0 8 -2 15 -4 15 -2 0
-6 -7 -10 -15z"/>
<path d="M246 5423 c-12 -71 -47 -298 -52 -333 -4 -35 -7 -62 -21 -195 -4 -38
-7 -212 -7 -385 1 -308 5 -363 39 -470 21 -69 75 -177 124 -249 35 -52 190
-221 203 -221 4 0 22 -13 39 -30 85 -81 340 -225 529 -299 156 -61 464 -156
570 -175 14 -2 45 -9 70 -15 55 -12 52 -11 300 -56 14 -2 45 -6 70 -9 25 -3
59 -8 75 -11 39 -6 110 -15 160 -19 22 -2 67 -7 100 -10 247 -25 373 -30 765
-30 329 0 552 7 650 19 19 2 73 7 120 10 83 6 125 10 205 19 22 3 67 8 100 11
33 3 71 8 85 10 14 2 45 7 70 10 25 3 106 15 180 26 74 12 146 22 160 24 14 2
25 4 25 5 0 1 9 3 20 5 24 4 82 14 110 19 75 14 241 50 244 52 4 3 2 145 -4
379 -1 72 -4 159 -4 195 -2 73 21 41 -190 270 -104 113 -123 133 -208 226
l-65 71 -42 -9 c-22 -5 -50 -11 -61 -13 -25 -4 -65 -12 -135 -27 -60 -13 -65
-13 -130 -24 -25 -4 -49 -8 -55 -10 -13 -3 -57 -10 -115 -19 -25 -4 -54 -9
-64 -11 -11 -2 -42 -6 -70 -10 -28 -3 -67 -8 -86 -10 -19 -3 -48 -7 -65 -9
-16 -2 -48 -6 -70 -9 -22 -3 -65 -8 -95 -11 -30 -3 -75 -7 -100 -10 -433 -44
-985 -49 -1340 -10 -36 4 -85 8 -110 10 -25 2 -45 4 -45 5 0 1 -28 5 -105 15
-19 2 -51 7 -70 10 -102 17 -198 35 -220 40 -14 3 -36 7 -50 10 -14 3 -40 9
-57 14 -18 5 -33 7 -33 4 0 -3 -7 0 -15 7 -8 7 -15 10 -15 7 0 -3 -15 -1 -32
4 -18 6 -43 12 -56 15 -23 5 -254 79 -282 91 -8 3 -17 7 -20 8 -20 7 -136 59
-225 101 -90 42 -271 164 -349 235 -95 87 -172 187 -228 296 -26 51 -45 93
-42 93 4 0 0 7 -7 17 -8 9 -13 19 -12 22 1 3 -2 22 -7 41 -22 84 -32 163 -34
257 -1 79 -10 95 -20 36z"/>
<path d="M9421 4314 c0 -11 3 -14 6 -6 3 7 2 16 -1 19 -3 4 -6 -2 -5 -13z"/>
<path d="M9416 4278 c-3 -7 -14 -47 -26 -88 -24 -85 -110 -261 -164 -338 -20
-29 -36 -56 -36 -61 0 -5 -3 -11 -7 -13 -5 -1 -30 -32 -58 -68 -80 -105 -238
-271 -344 -360 -30 -25 -59 -50 -65 -55 -10 -10 -48 -40 -146 -116 -94 -73
-376 -263 -382 -257 -2 1 -30 -16 -63 -39 -33 -22 -62 -40 -65 -40 -3 1 -37
-18 -77 -41 -103 -60 -384 -200 -548 -272 -150 -66 -400 -169 -425 -175 -8 -2
-16 -4 -17 -5 -2 -2 -6 -3 -10 -5 -5 -1 -21 -7 -38 -14 -43 -18 -496 -170
-520 -174 -11 -2 -27 -7 -35 -10 -17 -7 -186 -55 -216 -62 -10 -2 -46 -11 -79
-20 -33 -9 -67 -18 -75 -20 -8 -2 -44 -11 -80 -20 -36 -9 -72 -19 -80 -20 -8
-2 -15 -4 -15 -5 0 -2 -15 -5 -60 -13 -43 -8 -74 -15 -95 -22 -10 -3 -29 -8
-42 -10 -13 -3 -79 -16 -148 -30 -69 -13 -141 -27 -160 -31 -19 -3 -44 -7 -55
-10 -11 -2 -36 -6 -55 -9 -19 -3 -60 -9 -90 -15 -30 -5 -68 -11 -85 -14 -16
-2 -50 -8 -75 -12 -25 -4 -54 -8 -65 -9 -11 -2 -38 -6 -60 -9 -50 -7 -117 -16
-175 -22 -25 -2 -61 -7 -80 -9 -19 -3 -60 -7 -90 -10 -30 -3 -80 -7 -110 -10
-69 -7 -164 -14 -255 -19 -38 -3 -124 -8 -190 -12 -142 -8 -619 -8 -755 0
-215 13 -287 18 -320 21 -19 2 -66 6 -105 10 -79 8 -120 13 -120 15 0 1 -22 3
-50 5 -27 2 -63 6 -80 10 -16 3 -43 8 -60 10 -16 2 -43 6 -60 10 -16 3 -46 8
-65 10 -19 2 -53 9 -75 14 -22 6 -85 20 -140 32 -100 21 -171 39 -233 58 -34
10 -40 12 -57 16 -5 1 -34 10 -64 20 -30 10 -61 18 -68 18 -7 0 -13 5 -13 10
0 6 -3 7 -7 4 -3 -4 -12 -2 -20 4 -7 6 -13 8 -13 4 0 -4 -7 -2 -15 5 -8 7 -15
9 -15 5 0 -4 -6 -3 -12 2 -7 5 -35 18 -63 28 -96 34 -343 153 -365 175 -3 3
-18 12 -35 20 -16 8 -35 22 -42 30 -28 34 -12 -21 33 -117 82 -173 277 -500
306 -511 4 -2 8 -8 8 -13 0 -24 159 -209 179 -209 5 0 16 -6 23 -12 21 -20 66
-45 168 -94 52 -25 113 -54 136 -65 22 -11 47 -22 55 -23 8 -2 28 -9 44 -15
68 -29 270 -93 365 -116 150 -36 223 -52 275 -60 17 -3 41 -7 55 -10 14 -3 43
-8 65 -11 22 -3 51 -7 65 -10 68 -14 239 -35 320 -40 36 -2 65 -4 65 -5 0 -2
59 -7 175 -15 156 -10 680 -10 865 0 83 5 167 9 187 10 21 0 38 3 38 6 0 3 21
5 48 6 53 0 122 7 322 29 45 5 98 12 155 21 17 2 44 6 60 8 41 5 126 18 147
21 9 2 38 7 65 10 26 4 64 11 83 15 19 5 53 11 74 15 21 3 48 7 60 10 12 3 32
7 46 9 56 9 237 47 270 55 54 15 123 32 140 35 8 1 24 5 35 9 11 3 31 8 45 11
23 4 72 17 240 63 30 8 62 17 70 18 135 30 733 242 907 321 17 8 34 14 37 14
3 0 41 17 83 37 43 20 80 37 83 38 3 0 41 18 85 40 44 21 82 39 85 40 11 3
125 60 130 65 3 3 43 25 90 49 47 25 120 66 163 93 43 26 83 48 88 48 5 0 9 5
9 10 0 6 7 10 15 10 8 0 15 5 15 11 0 5 4 8 9 5 5 -4 11 -3 13 1 3 9 95 73
104 73 3 0 10 5 17 10 7 6 53 40 102 76 50 36 92 70 93 75 2 5 8 9 14 9 5 0
15 6 22 12 7 7 35 31 62 53 77 62 284 272 346 351 132 166 210 311 273 504 20
63 38 122 40 130 2 8 4 15 5 15 1 0 3 7 5 15 1 8 15 65 30 125 15 61 29 119
31 130 2 11 6 31 9 45 11 53 15 77 21 125 8 62 12 90 14 90 1 0 3 14 4 30 2
17 6 53 10 80 6 52 15 149 21 223 3 41 -2 55 -9 30z"/>
<path d="M6355 941 c-11 -5 -23 -7 -27 -4 -5 2 -8 -1 -8 -6 0 -6 -9 -11 -20
-11 -31 0 -24 -15 26 -56 26 -22 59 -50 74 -64 15 -14 49 -43 74 -65 109 -93
130 -119 116 -146 -9 -16 -62 -40 -84 -38 -5 0 -12 -4 -16 -10 -3 -6 -15 -13
-26 -16 -10 -2 -46 -15 -79 -29 -33 -14 -64 -21 -70 -17 -5 4 -36 17 -68 30
-53 21 -63 22 -98 11 -21 -7 -39 -15 -39 -18 0 -2 27 -33 60 -69 33 -35 58
-68 55 -74 -10 -14 -16 -149 -8 -149 5 0 24 5 44 10 32 9 39 18 69 84 l32 74
96 27 c53 15 102 28 109 29 7 1 16 5 19 9 14 14 63 7 72 -10 12 -24 8 -58 -44
-343 -17 -95 -18 -90 13 -80 87 26 87 27 128 118 21 48 53 120 72 160 18 41
33 78 33 83 0 5 5 9 10 9 6 0 9 3 8 8 -2 4 12 41 30 83 l34 77 66 27 c90 37
147 70 177 103 34 37 31 50 -12 61 -53 14 -103 7 -240 -32 -28 -8 -55 -11 -60
-7 -7 8 -261 140 -415 217 -72 36 -73 36 -103 24z"/>
<path d="M2380 736 c13 -15 49 -46 80 -69 30 -23 57 -44 60 -47 24 -24 298
-164 344 -176 14 -3 26 -10 26 -15 0 -5 3 -8 8 -7 7 1 16 -2 97 -37 22 -9 47
-18 55 -21 13 -3 326 -106 370 -122 8 -3 20 -6 25 -7 6 -2 57 -16 115 -33 117
-33 155 -43 185 -49 11 -2 56 -12 100 -22 44 -11 102 -22 129 -26 27 -3 52 -8
56 -10 4 -2 26 -7 51 -10 24 -3 85 -12 134 -18 50 -7 107 -13 128 -12 20 0 37
-2 37 -5 0 -10 570 -16 705 -7 93 6 224 17 255 22 14 2 54 7 90 10 36 4 72 9
80 10 8 2 38 6 65 9 28 4 102 16 165 27 63 11 131 22 150 25 19 2 43 7 52 10
9 2 27 7 40 9 112 21 120 24 114 41 -3 7 -2 15 2 18 4 2 7 23 7 46 0 31 -12
59 -50 121 l-50 80 -45 -7 c-25 -4 -55 -7 -67 -8 -13 0 -23 -5 -23 -9 0 -5 -6
-7 -12 -4 -7 2 -20 1 -28 -3 -8 -4 -35 -11 -60 -14 -53 -7 -87 -13 -155 -26
-27 -5 -66 -12 -85 -14 -19 -3 -52 -7 -72 -10 -21 -3 -55 -9 -75 -12 -21 -3
-58 -7 -83 -10 -25 -2 -60 -6 -78 -9 -33 -5 -158 -14 -267 -20 -33 -2 -60 -4
-60 -6 0 -1 -156 -3 -347 -3 -192 -1 -348 1 -348 4 0 3 -21 5 -48 6 -79 1
-272 18 -347 30 -16 3 -46 6 -65 9 -97 11 -141 17 -204 30 -38 8 -72 13 -74
10 -3 -2 -12 0 -22 5 -9 5 -39 12 -66 16 -27 3 -53 8 -57 11 -5 3 -18 6 -30 8
-40 6 -261 61 -287 72 -8 3 -23 8 -33 10 -62 12 -380 127 -482 174 -27 13 -52
24 -55 24 -3 0 -21 9 -40 19 l-35 19 25 -27z"/>
</g>
</svg>
