<?xml version="1.0" standalone="no"?>
<!DOCTYPE svg PUBLIC "-//W3C//DTD SVG 20010904//EN"
 "http://www.w3.org/TR/2001/REC-SVG-20010904/DTD/svg10.dtd">
<svg version="1.0" xmlns="http://www.w3.org/2000/svg"
 width="302.000000pt" height="302.000000pt" viewBox="0 0 302.000000 302.000000"
 preserveAspectRatio="xMidYMid meet">
<metadata>
Created by potrace 1.14, written by Peter Selinger 2001-2017
</metadata>
<g transform="translate(0.000000,302.000000) scale(0.100000,-0.100000)"
fill="#000000" stroke="none">
<path d="M1397 3004 c-1 -1 -27 -5 -57 -8 -278 -32 -576 -161 -785 -339 -503
-430 -673 -1101 -434 -1712 109 -280 312 -531 564 -698 156 -103 286 -160 475
-210 108 -28 128 -30 335 -33 201 -3 229 -1 330 21 469 102 843 394 1050 820
68 142 101 242 130 405 13 73 15 440 3 500 -16 75 -41 173 -59 230 -33 103
-133 297 -203 395 -84 115 -226 262 -316 325 -19 14 -37 28 -40 31 -3 3 -46
31 -96 61 -231 138 -482 209 -757 213 -75 0 -138 0 -140 -1z"/>
</g>
</svg>
